<svg height="512" viewBox="0 0 512 512" width="512" xmlns="http://www.w3.org/2000/svg" xmlns:xlink="http://www.w3.org/1999/xlink"><linearGradient id="a" gradientUnits="userSpaceOnUse" x1="42.005" x2="542.539" y1="517.995" y2="17.461"><stop offset="0" stop-color="#003f8a"/><stop offset=".518" stop-color="#00d7df"/><stop offset="1" stop-color="#006df0"/></linearGradient><linearGradient id="b" x1="68.005" x2="568.539" xlink:href="#a" y1="543.995" y2="43.461"/><linearGradient id="c" x1="22.005" x2="522.539" xlink:href="#a" y1="497.995" y2="-2.539"/><linearGradient id="d" x1="8.005" x2="508.538" xlink:href="#a" y1="483.994" y2="-16.54"/><linearGradient id="e" x1="-.641" x2="499.893" xlink:href="#a" y1="475.348" y2="-25.186"/><linearGradient id="f" x1="-1.495" x2="499.039" xlink:href="#a" y1="474.495" y2="-26.039"/><linearGradient id="g" x1="-15.495" x2="485.038" xlink:href="#a" y1="460.494" y2="-40.04"/><linearGradient id="h" x1="-24.141" x2="476.393" xlink:href="#a" y1="451.848" y2="-48.686"/><linearGradient id="i" x1="-17.995" x2="482.539" xlink:href="#a" y1="457.995" y2="-42.539"/><linearGradient id="j" x1="10.005" x2="510.539" xlink:href="#a" y1="485.995" y2="-14.539"/><g><path d="m120 456h-48a8 8 0 0 0 0 16h48a8 8 0 0 0 0-16z" fill="url(#a)"/><path d="m152 456h-8a8 8 0 0 0 0 16h8a8 8 0 0 0 0-16z" fill="url(#b)"/><path d="m176.189 342.282a24 24 0 1 0 -16.216 41.718q.552 0 1.108-.024a24 24 0 0 0 15.108-41.694zm-10.283 23.118a8 8 0 1 1 -6.266-13.387q.186-.009.369-.009a8 8 0 0 1 5.9 13.4z" fill="url(#c)"/><path d="m196.656 326.021a55.991 55.991 0 0 0 -74.936 1.465 8 8 0 0 0 10.942 11.674 39.991 39.991 0 0 1 53.516-1.048 8 8 0 0 0 10.478-12.091z" fill="url(#d)"/><path d="m106.664 308.739a8 8 0 1 0 10.672 11.92 63.988 63.988 0 0 1 85.335.006 8 8 0 1 0 10.675-11.918 79.986 79.986 0 0 0 -106.682-.008z" fill="url(#e)"/><path d="m408.189 63.282a24 24 0 1 0 -16.216 41.718q.552 0 1.108-.024a24 24 0 0 0 15.108-41.694zm-10.283 23.118a8 8 0 1 1 -6.266-13.387q.186-.009.369-.009a8 8 0 0 1 5.9 13.4z" fill="url(#f)"/><path d="m429.462 58.306a8 8 0 0 0 -.806-11.285 55.991 55.991 0 0 0 -74.936 1.465 8 8 0 0 0 10.942 11.674 39.991 39.991 0 0 1 53.516-1.048 8 8 0 0 0 11.284-.806z" fill="url(#g)"/><path d="m349.336 41.659a63.988 63.988 0 0 1 85.335.006 8 8 0 1 0 10.675-11.918 79.986 79.986 0 0 0 -106.682-.008 8 8 0 1 0 10.672 11.92z" fill="url(#h)"/><path d="m459.58 144.84-64-32a8.049 8.049 0 0 0 -7.16 0l-64 32a8.011 8.011 0 0 0 -4.42 7.16v88a8 8 0 0 0 8 8h56v88h-96v-240a40.04 40.04 0 0 0 -40-40h-176a40.04 40.04 0 0 0 -40 40v368a40.04 40.04 0 0 0 40 40h176a40.04 40.04 0 0 0 40-40v-112h104a8 8 0 0 0 8-8v-96h56a8 8 0 0 0 8-8v-88a8.011 8.011 0 0 0 -4.42-7.16zm-253.83-72.84-4 16h-83.5l-4-16zm66.25 392a24.032 24.032 0 0 1 -24 24h-176a24.032 24.032 0 0 1 -24-24v-368a24.032 24.032 0 0 1 24-24h25.75l6.49 25.94a8 8 0 0 0 7.76 6.06h96a8 8 0 0 0 7.76-6.06l6.49-25.94h25.75a24.032 24.032 0 0 1 24 24zm128-232h-16v-32h16zm48 0h-32v-40a8 8 0 0 0 -8-8h-32a8 8 0 0 0 -8 8v40h-32v-75.06l56-28 56 28z" fill="url(#i)"/><path d="m160 248a88 88 0 1 0 88 88 88.1 88.1 0 0 0 -88-88zm0 160a72 72 0 1 1 72-72 72.081 72.081 0 0 1 -72 72z" fill="url(#j)"/></g></svg>