<svg id="Layer_1" data-name="Layer 1" xmlns="http://www.w3.org/2000/svg" viewBox="0 0 512 512">
  <defs>
    <style>
      .cls-1 {
        fill: #164550;
      }
    </style>
  </defs>
  <title>Artboard 1</title>
  <path class="cls-1" d="M482,206H472V161a40,40,0,0,0-61-34,40.06,40.06,0,0,0-39-31h0a40,40,0,0,0-40,40v70H180V136a40,40,0,0,0-79-9,40,40,0,0,0-61,34v45H30A30,30,0,0,0,0,236v40a30,30,0,0,0,30,30H40v45a40,40,0,0,0,61,34,40.06,40.06,0,0,0,39,31h0a40,40,0,0,0,40-40V306H332v70a40,40,0,0,0,79,9,40,40,0,0,0,61-34V306h10a30,30,0,0,0,30-30V236A30,30,0,0,0,482,206ZM40,286H30a10,10,0,0,1-10-10V236a10,10,0,0,1,10-10H40Zm60,65a20,20,0,0,1-40,0V161a20,20,0,0,1,40,0Zm60,25a20,20,0,0,1-20,20h0a20,20,0,0,1-20-20V136a20,20,0,0,1,40,0ZM331.93,246H262a10,10,0,0,0,0,20h69.93v20H180V226h152ZM392,376a20,20,0,0,1-40,0V256.51c0,.22,0,.44-.06.65v-2.32c0,.21.05.43.06.65V136a20,20,0,0,1,20-20h0a20,20,0,0,1,20,20Zm60-25a20,20,0,0,1-40,0V161a20,20,0,0,1,40,0Zm40-75a10,10,0,0,1-10,10H472V226h10a10,10,0,0,1,10,10Z"/>
  <path class="cls-1" d="M222,266a10,10,0,0,1,0-20h0a10,10,0,0,1,0,20Z"/>
</svg>
