<svg height="512" viewBox="0 0 40 60" width="512" xmlns="http://www.w3.org/2000/svg"><g id="Page-1" fill="none" fill-rule="evenodd"><g id="050---Parking-Location" fill-rule="nonzero"><g id="Icons_copy" transform="translate(1 1)"><path id="Shape" d="m37.58 53.26-1.81 1.13-14.51-5.69c-.1358111-.0575928-.2263986-.1881513-.2328064-.3355302-.0064078-.1473788.0725064-.2853069.2028064-.3544698l9.49-5.1 2.73.91c.0941312.0298424.1611153.1133187.1698585.2116792.0087432.0983606-.0424669.1923431-.1298585.2383208l-6.99 3.76c-.0875851.045558-.1408373.1377396-.1365489.2363717.0042883.0986321.0653402.185844.1565489.2236283l11.02 4.33c.086753.0344449.1467626.1147503.1552133.2077079s-.0360939.1827679-.1152133.2322921z" fill="#7facfa"/><path id="Shape" d="m35.77 54.39-5.65 3.53c-.0754156.0482265-.1709734.0520489-.25.01l-10.75-5.79c-.075-.04-.165-.04-.24 0l-6.23 3.35-4.52 2.44c-.0790266.0420489-.17458441.0382265-.25-.01l-2.33-1.46-5.13-3.2c-.07911941-.0495242-.12366395-.1393345-.11521326-.2322921s.0684603-.173263.15521326-.2077079l11.02-4.33c.0912087-.0377843.1522606-.1249962.1565489-.2236283.0042884-.0986321-.0489638-.1908137-.1365489-.2363717l-6.99-3.76c-.0873916-.0459777-.13860167-.1399602-.12985851-.2383208.00874316-.0983605.07572734-.1818368.16985851-.2116792l2.32-.77 3.04-1.02c.05489539-.0200372.1151046-.0200372.17 0l2.81 1.11h.01l4.17 1.64h3.86l6.99-2.75c.0548954-.0200372.1151046-.0200372.17 0l3.91.88-10.03 5.1c-.1303.0691629-.2092142.207091-.2028064.3544698.0064078.1473789.0969953.2779374.2328064.3355302z" fill="#a4c2f7"/><path id="Shape" d="m37 3v32c.0010634.795975-.3146656 1.5596548-.8775054 2.1224946s-1.3265196.8785688-2.1224946.8775054h-9l-5.79 9.64c-.0437986.0743841-.123679.1200485-.21.1200485s-.1662014-.0456644-.21-.1200485l-1.29-2.15-4.5-7.49h-9c-.795975.0010634-1.55965477-.3146656-2.12249459-.8775054s-.87856884-1.3265196-.87750541-2.1224946v-32c-.00106343-.795975.31466559-1.55965477.87750541-2.12249459s1.32651959-.87856884 2.12249459-.87750541h30c.795975-.00106343 1.5596548.31466559 2.1224946.87750541s.8785688 1.32651959.8775054 2.12249459z" fill="#cad9fc"/><path id="Shape" d="m34 3v32c.0010634.795975-.3146656 1.5596548-.8775054 2.1224946s-1.3265196.8785688-2.1224946.8775054h-9l-4.5 7.49-4.5-7.49h-9c-.795975.0010634-1.55965477-.3146656-2.12249459-.8775054s-.87856884-1.3265196-.87750541-2.1224946v-32c-.00106343-.795975.31466559-1.55965477.87750541-2.12249459s1.32651959-.87856884 2.12249459-.87750541h27c.795975-.00106343 1.5596548.31466559 2.1224946.87750541s.8785688 1.32651959.8775054 2.12249459z" fill="#e8edfc"/><path id="Shape" d="m22 7h-9c-.5516236.00159279-.9984072.44837635-1 1v22c-.0012003.3560148.1900157.6849064.5.86.1507747.0914048.3236827.139819.5.14h2c.5516236-.0015928.9984072-.4483764 1-1v-10h6c3.3126343-.0025919 5.9974081-2.6873657 6-6v-1c-.0025919-3.31263432-2.6873657-5.99740815-6-6zm-6 9v-5h6c1.1032246.0032402 1.9967598.8967754 2 2v1c-.0032402 1.1032246-.8967754 1.9967598-2 2z" fill="#e8edfc"/><path id="Shape" d="m19 7h-6c-.5516236.00159279-.9984072.44837635-1 1v22c-.0012003.3560148.1900157.6849064.5.86.3-.17 3.5-.49 3.5-.86v-10h3c3.3126343-.0025919 5.9974081-2.6873657 6-6v-1c-.0025919-3.31263432-2.6873657-5.99740815-6-6zm5 7c-.0032402 1.1032246-.8967754 1.9967598-2 2h-6v-5h6c1.1032246.0032402 1.9967598.8967754 2 2z" fill="#fff"/></g><g id="Icons" fill="#fff" transform="translate(2 1)"><path id="Shape" d="m6-.00000268-3 .00000268c-.795975-.00106343-1.55965477.31466559-2.12249459.87750541s-.87856884 1.32651959-.87750541 2.12249459v32c-.00106343.795975.31466559 1.5596548.87750541 2.1224946s1.32651959.8785688 2.12249459.8775054l3 .0000027c-.795975.0010607-1.55965477-.3146683-2.12249459-.8775081s-.87856884-1.3265196-.87750541-2.1224946v-32c-.00106343-.795975.31466559-1.55965477.87750541-2.12249459s1.32651959-.87856884 2.12249459-.87750809z"/></g><g id="Layer_2"><path id="Shape" d="m30.99 59.9609c-.2046625-.000065-.4061846-.050334-.5869-.1464l-10.4031-5.5987-10.3984 5.5967c-.39630335.2123562-.87603615.195944-1.2569-.043l-7.4541-4.6595c-.40037165-.250217-.6255029-.7047506-.58191169-1.1748631.04359122-.4701126.34845889-.875502.78801169-1.0478369l9.5088-3.7393-5.5694-2.9931c-.43885234-.2367476-.69516401-.7115386-.65230737-1.2083324s.37669355-.9206749.84960737-1.0787676l5.3643-1.7878c.2797322-.0932481.5834235-.0846056.8574.0244l6.9814 2.7456c.3324892.1308307.5699246.4291041.6228665.7824635.052942.3533594-.0866527.7081212-.3662.93065-.2795472.2225288-.6565773.2790172-.9890665.1481865l-6.7334-2.6474-3.457 1.1523 5.4648 2.9375c.4286135.2308196.684333.689385.6554294 1.1753395-.0289036.4859546-.3371771.9109748-.7901294 1.0893605l-9.63 3.7861 5.8242 3.6406 10.37-5.582c.3711161-.2016851.8193717-.2005922 1.1895.0029l10.3642 5.5791 5.8242-3.6406-9.63-3.7861c-.4525545-.1778984-.7608702-.6021005-.7903866-1.0874687-.0295163-.4853681.2251241-.9438049.6527866-1.1752313l5.4677-2.9395-3.458-1.1523-6.7324 2.6474c-.5139838.2022467-1.0946033-.0504662-1.29685-.56445s.0504662-1.0946033.56445-1.29685l6.9868-2.7475c.2727071-.1074046.5745289-.1153352.8525-.0224l5.3643 1.7881c.4729138.1580927.8067507.5819738.8496074 1.0787676.0428566.4967938-.2134551.9715848-.6523074 1.2083324l-5.5694 2.9931 9.51 3.7393c.4394142.1729141.7438817.5786905.7870437 1.0489257.043162.4702353-.1823495.9246574-.5829437 1.1746743l-7.4551 4.6592c-.198763.1249833-.4289082.1910065-.6637.1904zm-.3964-1.8867-.003.002zm-21.19-.001.0029.002zm10.24-4.0488.0078.0039zm.7168-.0029-.0088.0039zm-9.6426-10.0576.0078.0029zm18.5693-.002-.0078.0029z" fill="#428dff"/><path id="Shape" d="m3 4v13 19h-2v-19-13z" fill="#fff"/><g fill="#428dff"><path id="Shape" d="m2 9c.55162365-.00159279.99840721-.44837635 1-1v-4h-2v4c.0016474.55160093.44839907.9983526 1 1z"/><path id="Shape" d="m1 36h2v-20c0-.5522847-.44771525-1-1-1s-1 .4477153-1 1z"/><path id="Shape" d="m3 12c-.0039589-.2647108-.10750224-.5182135-.29-.71l-.15-.12c-.05575598-.037828-.11628399-.068092-.18-.09-.05666008-.0288933-.11733597-.0491186-.18-.06-.06612874-.0112482-.13295338-.0179306-.2-.02-.26476698.0036835-.51836621.1072663-.71.29-.24271017.233753-.34919273.575294-.28232838.9055634.06686436.3302694.29780924.6034969.61232838.7244366.12022231.051241.24932274.07842.38.08.26603534.0027011.52196165-.1017882.71008674-.2899133s.29261434-.4440514.28991326-.7100867z"/><path id="Shape" d="m20 49.7646c-.4393062.0019093-.8468307-.2287664-1.0713-.6064l-5.4951-9.1582h-8.4336c-2.20824787-.0021499-3.9978501-1.7917521-4-4 0-.5522847.44771525-1 1-1s1 .4477153 1 1c.00148733 1.1039528.89604716 1.9985127 2 2h9c.3512087.0000107.676668.184263.8574.4854l5.1426 8.5712 5.1426-8.5712c.180732-.301137.5061913-.4853893.8574-.4854h9c1.1039528-.0014873 1.9985127-.8960472 2-2v-32c-.0014873-1.10395284-.8960472-1.99851267-2-2h-30c-1.10395284.00148733-1.99851267.89604716-2 2 0 .55228475-.44771525 1-1 1s-1-.44771525-1-1c.0021499-2.20824787 1.79175213-3.9978501 4-4h30c2.2082479.0021499 3.9978501 1.79175213 4 4v32c-.0021499 2.2082479-1.7917521 3.9978501-4 4h-8.4336l-5.4941 9.1572c-.2246938.3780267-.6325401.6090495-1.0723.6074z"/><path id="Shape" d="m17 18c-.5522847 0-1-.4477153-1-1v-5c0-.5522847.4477153-1 1-1s1 .4477153 1 1v5c0 .5522847-.4477153 1-1 1z"/><path id="Shape" d="m17 33h-4c-.5522847 0-1-.4477153-1-1v-24c0-.55228475.4477153-1 1-1h4c.5522847 0 1 .44771525 1 1s-.4477153 1-1 1h-3v22h2v-10c0-.5522847.4477153-1 1-1s1 .4477153 1 1v11c0 .5522847-.4477153 1-1 1z"/><path id="Shape" d="m17 18c-.5522847 0-1-.4477153-1-1v-5c0-.5522847.4477153-1 1-1s1 .4477153 1 1v5c0 .5522847-.4477153 1-1 1z"/><path id="Shape" d="m23 22h-6c-.5522847 0-1-.4477153-1-1s.4477153-1 1-1h6c2.760076-.0032511 4.9967489-2.239924 5-5v-1c-.0032511-2.760076-2.239924-4.99674886-5-5h-6c-.5522847 0-1-.44771525-1-1s.4477153-1 1-1h6c3.8640516.00468354 6.9953165 3.1359484 7 7v1c-.0046835 3.8640516-3.1359484 6.9953165-7 7z"/><path id="Shape" d="m23 18h-6c-.5522847 0-1-.4477153-1-1v-5c0-.5522847.4477153-1 1-1h6c1.6561003.0018187 2.9981813 1.3438997 3 3v1c-.0018187 1.6561003-1.3438997 2.9981813-3 3zm-5-2h5c.5521476-.000331.999669-.4478524 1-1v-1c-.000331-.5521476-.4478524-.999669-1-1h-5z"/></g></g></g></g></svg>