<svg id="Layer_1" data-name="Layer 1" xmlns="http://www.w3.org/2000/svg" viewBox="0 0 512 512">
  <defs>
    <style>
      .cls-1 {
        fill: #8bd996;
      }
    </style>
  </defs>
  <title>Artboard 1</title>
  <path class="cls-1" d="M495.53,163.53C511.81,82.13,512,17.7,512,15A15,15,0,0,0,497,0c-2.7,0-67.13.19-148.53,16.47a726.06,726.06,0,0,0-82.19,21.31l-.52.17q-25,8.16-47.64,17.85a457.09,457.09,0,0,0-51.67,26,14.25,14.25,0,0,0-1.41.85C139.39,97.86,117,115,98.17,133.8A198,198,0,0,0,88,402.83L4.39,486.39a15,15,0,0,0,21.22,21.22l83.56-83.56a198,198,0,0,0,269-10.21C397,395,414.14,372.61,429.36,347a14.25,14.25,0,0,0,.85-1.41,457.08,457.08,0,0,0,26-51.67q9.71-22.65,17.88-47.7c.05-.14.09-.28.14-.42A724.66,724.66,0,0,0,495.53,163.53ZM353.78,46A856.91,856.91,0,0,1,481.57,30.43,856.76,856.76,0,0,1,466,158.22a700.86,700.86,0,0,1-17.22,68.25h-142L394,139.22A15,15,0,0,0,372.79,118l-87.25,87.25v-142A700,700,0,0,1,353.78,46Zm54.4,277.52H209.69l67.05-67H438.67A469.83,469.83,0,0,1,408.18,323.52ZM255.54,73.33V235.25L188.48,302.3V103.82A470.06,470.06,0,0,1,255.54,73.33ZM70.17,273.82A166.87,166.87,0,0,1,119.38,155a287.58,287.58,0,0,1,39.09-32.48V332.3l-49.23,49.24A166.68,166.68,0,0,1,70.17,273.82ZM357,392.63a168,168,0,0,1-226.53,10.12l49.23-49.23H389.47A288.5,288.5,0,0,1,357,392.63Z"/>
</svg>
