<svg height="512" viewBox="0 0 64 64" width="512" xmlns="http://www.w3.org/2000/svg" xmlns:xlink="http://www.w3.org/1999/xlink"><linearGradient id="linear-gradient" gradientUnits="userSpaceOnUse" x1="-2" x2="66.007" y1="27" y2="27"><stop offset="0" stop-color="#fc4a1a"/><stop offset="1" stop-color="#f7b733"/></linearGradient><linearGradient id="linear-gradient-2" x2="66.007" xlink:href="#linear-gradient" y1="43" y2="43"/><linearGradient id="linear-gradient-5" x2="66.007" xlink:href="#linear-gradient" y1="31.793" y2="31.793"/><g id="Gradient_outline" data-name="Gradient outline"><path d="m31 26h2v2h-2z" fill="url(#linear-gradient)"/><path d="m31 42h2v2h-2z" fill="url(#linear-gradient-2)"/><path d="m44 26h2v2h-2z" fill="url(#linear-gradient)"/><path d="m44 42h2v2h-2z" fill="url(#linear-gradient-2)"/><path d="m52 18.586v4.414h-2v-4.414l-5-5-5 5v4.414h-3v-4.414l-5-5-5 5v4.414h-3v-4.414l-5-5-5 5v4.414h-2v-4.414l-5-5-5 5v31.414h10v-3h2v3h10v-3h3v3h10v-3h3v3h10v-3h2v3h10v-31.414l-5-5zm-42 29.414h-6v-9h4v-2h-4v-2h3v-2h-3v-13.586l3-3 3 3zm4-3h-2v-4h2zm0-6h-2v-8h2zm0-10h-2v-4h2zm8 19h-6v-28.586l3-3 3 3zm5-3h-3v-4h3zm0-6h-3v-8h3zm0-10h-3v-4h3zm8 2h-3v2h3v2h-4v2h4v11h-6v-28.586l3-3 3 3zm5 14h-3v-4h3zm0-6h-3v-8h3zm0-10h-3v-4h3zm8 19h-6v-28.586l3-3 3 3zm4-3h-2v-4h2zm0-6h-2v-8h2zm0-10h-2v-4h2zm8 3h-2v2h2v2h-4v2h4v10h-6v-28.586l3-3 3 3z" fill="url(#linear-gradient-5)"/><path d="m56 26h2v2h-2z" fill="url(#linear-gradient)"/><path d="m56 42h2v2h-2z" fill="url(#linear-gradient-2)"/><path d="m18 26h2v2h-2z" fill="url(#linear-gradient)"/><path d="m18 42h2v2h-2z" fill="url(#linear-gradient-2)"/><path d="m6 26h2v2h-2z" fill="url(#linear-gradient)"/><path d="m6 42h2v2h-2z" fill="url(#linear-gradient-2)"/></g></svg>