<svg height="512" viewBox="0 0 64 64" width="512" xmlns="http://www.w3.org/2000/svg" xmlns:xlink="http://www.w3.org/1999/xlink"><linearGradient id="New_Gradient_Swatch" gradientUnits="userSpaceOnUse" x1="34" x2="34" y1="58.598" y2="6.873"><stop offset="0" stop-color="#e93e3a"/><stop offset=".35" stop-color="#ed683c"/><stop offset=".7" stop-color="#f3903f"/><stop offset="1" stop-color="#fdc70c"/></linearGradient><linearGradient id="New_Gradient_Swatch-2" x1="14" x2="14" xlink:href="#New_Gradient_Swatch" y1="58.598" y2="6.873"/><linearGradient id="New_Gradient_Swatch-3" x1="15" x2="15" xlink:href="#New_Gradient_Swatch" y1="58.598" y2="6.873"/><linearGradient id="New_Gradient_Swatch-4" x1="43" x2="43" xlink:href="#New_Gradient_Swatch" y1="58.598" y2="6.873"/><linearGradient id="New_Gradient_Swatch-5" x1="3" x2="3" xlink:href="#New_Gradient_Swatch" y1="58.598" y2="6.873"/><linearGradient id="New_Gradient_Swatch-6" x1="32" x2="32" xlink:href="#New_Gradient_Swatch" y1="58.598" y2="6.873"/><g id="Car_Park-Parking_Lot" data-name="Car Park-Parking Lot"><path d="m32 37h4v2h-4z" fill="url(#New_Gradient_Swatch)"/><path d="m12 37h4v2h-4z" fill="url(#New_Gradient_Swatch-2)"/><path d="m14 49h2v2h-2z" fill="url(#New_Gradient_Swatch-3)"/><path d="m42 49h2v2h-2z" fill="url(#New_Gradient_Swatch-4)"/><path d="m2 55h2v2h-2z" fill="url(#New_Gradient_Swatch-5)"/><path d="m61 51h-1v-35a1 1 0 0 0 -.293-.707l-8-8a.994.994 0 0 0 -.707-.293h-46a1 1 0 0 0 -1 1v6a1 1 0 0 0 1 1h39v4a1 1 0 0 0 .293.707l5 5a1 1 0 0 0 .707.293h8v26h-1a1 1 0 0 0 -1 1v3h-8.111a6.975 6.975 0 0 0 2.031-4h3.08a3 3 0 0 0 3-3v-8a7.008 7.008 0 0 0 -7-7h-3.531l-8.5-10.2a4.988 4.988 0 0 0 -3.842-1.8h-20.693a4.983 4.983 0 0 0 -4.441 2.7l-4.568 8.833a16.891 16.891 0 0 0 -1.425 6.814v8.653a3 3 0 0 0 3 3h3.08a6.98 6.98 0 0 0 2.03 4h-4.11v2h56v-5a1 1 0 0 0 -1-1zm-3-31.414-6-6v-3.172l6 6zm-52-10.586h44v4h-44zm44.414 14-4.414-4.414v-3.586h4.586l7.414 7.414v.586zm-7.414 32a5 5 0 1 1 5-5 5.006 5.006 0 0 1 -5 5zm11-15v1h-4v-2h3.9a5 5 0 0 1 .1 1zm-5-5a4.977 4.977 0 0 1 3.974 2h-2.974a2 2 0 0 0 -2 2v2a2 2 0 0 0 2 2h4v2h-3v2h3v1a1 1 0 0 1 -1 1h-3.08a6.991 6.991 0 0 0 -13.84 0h-6.08v-14zm-19-8h7.86l5.007 6-12.867.024zm-2 6.027-16.792.027 1.373-5.305a1 1 0 0 1 .967-.749h14.452zm-24 14.973v-1h3v-2h-3v-5.653a14.885 14.885 0 0 1 1.229-5.954l4.541-8.772a2.988 2.988 0 0 1 2.664-1.621h20.693a2.992 2.992 0 0 1 2.3 1.08l.773.92h-22.652a3 3 0 0 0 -2.9 2.249l-1.389 5.358a2 2 0 0 0 1.961 2.393h16.78v14h-6.08a6.991 6.991 0 0 0 -13.84 0h-3.08a1 1 0 0 1 -1-1zm6 2a5 5 0 1 1 5 5 5.006 5.006 0 0 1 -5-5zm9.89 5a6.98 6.98 0 0 0 2.03-4h14.16a6.975 6.975 0 0 0 2.031 4zm38.11 0v-2h2v2z" fill="url(#New_Gradient_Swatch-6)"/></g></svg>