<svg height="512" viewBox="0 0 64 64" width="512" xmlns="http://www.w3.org/2000/svg" xmlns:xlink="http://www.w3.org/1999/xlink"><linearGradient id="linear-gradient" gradientUnits="userSpaceOnUse" x1="1.597" x2="65.33" y1="32" y2="32"><stop offset="0" stop-color="#7ed4ef"/><stop offset=".229" stop-color="#66bfe6"/><stop offset=".711" stop-color="#298bd0"/><stop offset="1" stop-color="#0169c2"/></linearGradient><linearGradient id="linear-gradient-2" x1="1.597" x2="65.33" xlink:href="#linear-gradient" y1="22" y2="22"/><linearGradient id="linear-gradient-3" x1="1.597" x2="65.33" xlink:href="#linear-gradient" y1="18.5" y2="18.5"/><linearGradient id="linear-gradient-4" x1="1.597" x2="65.33" xlink:href="#linear-gradient" y1="25.5" y2="25.5"/><linearGradient id="linear-gradient-5" x1="1.597" x2="65.33" xlink:href="#linear-gradient" y1="21" y2="21"/><linearGradient id="linear-gradient-6" x1="1.597" x2="65.33" xlink:href="#linear-gradient" y1="23" y2="23"/><linearGradient id="linear-gradient-7" x1="1.597" x2="65.33" xlink:href="#linear-gradient" y1="26" y2="26"/><g id="Gradient_outline" data-name="Gradient outline"><path d="m45 41a1 1 0 0 0 1-1v-3h2.07a15.037 15.037 0 0 0 -.07-30h-32.07a15.037 15.037 0 0 0 .07 30h6v3a1 1 0 0 0 1 1h4v9a1 1 0 0 0 1 1h26v5a1 1 0 0 0 1 1h6a1 1 0 0 0 1-1v-18a1 1 0 0 0 -1-1h-6a1 1 0 0 0 -1 1v5h-13v-2zm11-2h4v16h-4zm-8.07-30a12.824 12.824 0 0 1 6.015 2h-13.945v2h16.377a13.04 13.04 0 0 1 3.575 8h-27.985a15.009 15.009 0 0 0 -7.523-12zm-30.93 26h-.93a13.04 13.04 0 0 1 -.07-26h1a13.015 13.015 0 0 1 13 13 1 1 0 0 0 1 1h28.952a13.036 13.036 0 0 1 -11.952 12h-23.527a14.978 14.978 0 0 0 6.461-7.643l-1.868-.714a12.853 12.853 0 0 1 -12.066 8.357zm37 10v4h-25v-4zm-25-2v-2h10v2zm-5-4v-2h20v2z" fill="url(#linear-gradient)"/><path d="m17 11a11 11 0 1 0 11 11 11.013 11.013 0 0 0 -11-11zm0 20a9 9 0 1 1 9-9 9.01 9.01 0 0 1 -9 9z" fill="url(#linear-gradient-2)"/><path d="m17 15v2a5.006 5.006 0 0 1 5 5h2a7.008 7.008 0 0 0 -7-7z" fill="url(#linear-gradient-3)"/><path d="m12 22h-2a7.008 7.008 0 0 0 7 7v-2a5.006 5.006 0 0 1 -5-5z" fill="url(#linear-gradient-4)"/><path d="m17 20h2v2h-2z" fill="url(#linear-gradient-5)"/><path d="m15 22h2v2h-2z" fill="url(#linear-gradient-6)"/><g fill="url(#linear-gradient-7)"><path d="m55 25h2v2h-2z"/><path d="m51 25h2v2h-2z"/><path d="m47 25h2v2h-2z"/></g></g></svg>