<svg id="Layer_1" data-name="Layer 1" xmlns="http://www.w3.org/2000/svg" viewBox="0 0 512 512">
  <defs>
    <style>
      .cls-1 {
        fill: #ee5340;
      }
    </style>
  </defs>
  <title>Artboard 1</title>
  <path class="cls-1" d="M190,103.2c-8.18,5.53-19.39,13.12-19.39,28.57a10,10,0,0,0,20,0c0-4.4,3.07-6.91,10.6-12,8.19-5.54,19.4-13.12,19.4-28.58s-11.21-23-19.4-28.58c-7.53-5.1-10.6-7.61-10.6-12s3.07-6.91,10.6-12C209.4,33,220.61,25.46,220.61,10a10,10,0,0,0-20,0c0,4.4-3.07,6.91-10.61,12-8.18,5.54-19.39,13.12-19.39,28.58s11.21,23,19.39,28.58c7.54,5.1,10.61,7.61,10.61,12S197.54,98.1,190,103.2Z"/>
  <path class="cls-1" d="M259,103.2c-8.18,5.53-19.4,13.12-19.4,28.57a10,10,0,1,0,20,0c0-4.4,3.07-6.91,10.61-12,8.18-5.54,19.39-13.12,19.39-28.58s-11.21-23-19.39-28.58c-7.54-5.1-10.61-7.61-10.61-12s3.07-6.91,10.61-12C278.38,33,289.59,25.45,289.59,10a10,10,0,0,0-20,0c0,4.4-3.07,6.91-10.6,12-8.19,5.54-19.4,13.12-19.4,28.58s11.21,23,19.4,28.57c7.53,5.11,10.6,7.62,10.6,12S266.53,98.1,259,103.2Z"/>
  <path class="cls-1" d="M328,103.2c-8.18,5.53-19.39,13.12-19.39,28.57a10,10,0,1,0,20,0c0-4.4,3.07-6.91,10.6-12,8.19-5.54,19.4-13.12,19.4-28.58s-11.21-23-19.4-28.58c-7.53-5.1-10.6-7.61-10.6-12s3.07-6.91,10.6-12c8.19-5.54,19.4-13.12,19.4-28.58a10,10,0,0,0-20,0c0,4.4-3.07,6.91-10.61,12-8.18,5.54-19.39,13.12-19.39,28.58s11.21,23,19.39,28.58c7.54,5.1,10.61,7.61,10.61,12S335.51,98.1,328,103.2Z"/>
  <path class="cls-1" d="M477.41,229.45H440.83a189.28,189.28,0,0,0,2.23-21.72,29.51,29.51,0,0,0-9.72-57.38H78.07a29.51,29.51,0,0,0-9.71,57.38,186.67,186.67,0,0,0,2.22,21.71H34a10,10,0,0,0,0,20H75a188.39,188.39,0,0,0,92,115.14L143.33,409a.2.2,0,0,1,0,.08L99.1,492H83.88a10,10,0,0,0,0,20h42.44a10,10,0,0,0,0-20h-4.56l36.35-68.21H355.69L392,492H385.1a10,10,0,0,0,0,20h42.43a10,10,0,0,0,0-20H414.7l-44.2-82.94,0-.07-24.21-45.42a188.37,188.37,0,0,0,90.2-114.12h41a10,10,0,0,0,0-20ZM168.77,403.79l16.33-30.67a187.45,187.45,0,0,0,143.17-.8L345,403.79Zm86.94-36.86c-89,0-162.07-69.79-167.25-157.54H423C417.77,297.14,344.74,366.93,255.71,366.93ZM433.34,189.39H78.07a9.52,9.52,0,0,1,0-19H433.34a9.52,9.52,0,1,1,0,19Z"/>
  <path class="cls-1" d="M255.71,349.33a149.3,149.3,0,0,0,127.14-70.52,10,10,0,0,0-17-10.62,129.4,129.4,0,0,1-110.19,61.14,10,10,0,1,0,0,20Z"/>
  <path class="cls-1" d="M381.24,240.75a10,10,0,1,0,4.09-12.39A10.08,10.08,0,0,0,381.24,240.75Z"/>
</svg>
