<!DOCTYPE svg PUBLIC "-//W3C//DTD SVG 1.1//EN" "http://www.w3.org/Graphics/SVG/1.1/DTD/svg11.dtd">
<!-- Uploaded to: SVG Repo, www.svgrepo.com, Transformed by: SVG Repo Mixer Tools -->
<svg fill="#ffffff" height="800px" width="800px" version="1.1" id="Layer_1" xmlns="http://www.w3.org/2000/svg" xmlns:xlink="http://www.w3.org/1999/xlink" viewBox="0 0 512 512" xml:space="preserve" stroke="#ffffff">
<g id="SVGRepo_bgCarrier" stroke-width="0"/>
<g id="SVGRepo_tracerCarrier" stroke-linecap="round" stroke-linejoin="round"/>
<g id="SVGRepo_iconCarrier"> <g> <g> <path d="M501.801,292.034h-34.492V72.141c0-35.7-29.045-64.745-64.745-64.745c-32.919,0-60.159,24.701-64.207,56.538 c-25.312,4.682-44.55,26.908-44.55,53.555c0,5.632,4.567,10.199,10.199,10.199h88.558c5.632,0,10.199-4.567,10.199-10.199 c0-26.383-18.855-48.441-43.796-53.42c3.807-20.611,21.901-36.276,43.597-36.276c24.454,0,44.346,19.894,44.346,44.346v219.894 H10.199C4.566,292.034,0,296.601,0,302.233v42.456c0,70.217,52.374,128.425,120.107,137.63v12.085 c0,5.632,4.566,10.199,10.199,10.199c5.633,0,10.199-4.567,10.199-10.199v-10.808h230.989v10.808 c0,5.632,4.567,10.199,10.199,10.199c5.632,0,10.199-4.567,10.199-10.199v-12.085C459.626,473.115,512,414.907,512,344.689 v-42.456C512,296.601,507.433,292.034,501.801,292.034z M380.806,107.291h-65.041c4.345-13.826,17.279-23.88,32.521-23.88 S376.461,93.466,380.806,107.291z M491.602,344.689c0,65.345-53.163,118.509-118.509,118.509H138.907 c-65.345,0-118.509-53.163-118.509-118.509v-32.257h471.203V344.689z"/> </g> </g> <g> <g> <path d="M292.869,331.139h-15.641c-5.632,0-10.199,4.567-10.199,10.199c0,5.632,4.567,10.199,10.199,10.199h15.641 c5.632,0,10.199-4.567,10.199-10.199C303.068,335.706,298.501,331.139,292.869,331.139z"/> </g> </g> <g> <g> <path d="M464.931,331.139h-122.9c-5.632,0-10.199,4.567-10.199,10.199c0,5.632,4.566,10.199,10.199,10.199h122.9 c5.632,0,10.199-4.567,10.199-10.199C475.13,335.706,470.563,331.139,464.931,331.139z"/> </g> </g> </g>
</svg>