<!DOCTYPE svg PUBLIC "-//W3C//DTD SVG 1.1//EN" "http://www.w3.org/Graphics/SVG/1.1/DTD/svg11.dtd">
<!-- Uploaded to: SVG Repo, www.svgrepo.com, Transformed by: SVG Repo Mixer Tools -->
<svg fill="#fff" height="800px" width="800px" version="1.1" id="Layer_1" xmlns="http://www.w3.org/2000/svg" xmlns:xlink="http://www.w3.org/1999/xlink" viewBox="0 0 512 512" xml:space="preserve" stroke="#fff">
<g id="SVGRepo_bgCarrier" stroke-width="0"/>
<g id="SVGRepo_tracerCarrier" stroke-linecap="round" stroke-linejoin="round"/>
<g id="SVGRepo_iconCarrier"> <g> <g> <path d="M435.2,0H76.8c-9.412,0-17.067,7.654-17.067,17.067v477.867c0,9.412,7.654,17.067,17.067,17.067h358.4 c9.412,0,17.067-7.654,17.067-17.067V17.067C452.267,7.654,444.612,0,435.2,0z M76.8,494.933V17.067h358.4l0.009,477.867H76.8z"/> </g> </g> <g> <g> <path d="M401.067,34.133H110.933c-9.412,0-17.067,7.654-17.067,17.067v119.467c0,9.412,7.654,17.067,17.067,17.067h290.133 c9.412,0,17.067-7.654,17.067-17.067V51.2C418.133,41.788,410.479,34.133,401.067,34.133z M110.933,170.667V51.2h290.133 l0.009,119.467H110.933z"/> </g> </g> <g> <g> <path d="M401.067,324.267h-34.133c-9.412,0-17.067,7.654-17.067,17.067V460.8c0,9.412,7.654,17.067,17.067,17.067h34.133 c9.412,0,17.067-7.654,17.067-17.067V341.333C418.133,331.921,410.479,324.267,401.067,324.267z M366.933,460.8V341.333h34.133 l0.009,119.467H366.933z"/> </g> </g> <g> <g> <path d="M315.733,409.6H281.6c-9.412,0-17.067,7.654-17.067,17.067V460.8c0,9.412,7.654,17.067,17.067,17.067h34.133 c9.412,0,17.067-7.654,17.067-17.067v-34.133C332.8,417.254,325.146,409.6,315.733,409.6z M281.6,460.8v-34.133h34.133 l0.009,34.133H281.6z"/> </g> </g> <g> <g> <path d="M230.4,409.6h-34.133c-9.412,0-17.067,7.654-17.067,17.067V460.8c0,9.412,7.654,17.067,17.067,17.067H230.4 c9.412,0,17.067-7.654,17.067-17.067v-34.133C247.467,417.254,239.812,409.6,230.4,409.6z M196.267,460.8v-34.133H230.4 l0.008,34.133H196.267z"/> </g> </g> <g> <g> <path d="M145.067,409.6h-34.133c-9.412,0-17.067,7.654-17.067,17.067V460.8c0,9.412,7.654,17.067,17.067,17.067h34.133 c9.412,0,17.067-7.654,17.067-17.067v-34.133C162.133,417.254,154.479,409.6,145.067,409.6z M110.933,460.8v-34.133h34.133 l0.009,34.133H110.933z"/> </g> </g> <g> <g> <path d="M315.733,324.267H281.6c-9.412,0-17.067,7.654-17.067,17.067v34.133c0,9.412,7.654,17.067,17.067,17.067h34.133 c9.412,0,17.067-7.654,17.067-17.067v-34.133C332.8,331.921,325.146,324.267,315.733,324.267z M281.6,375.467v-34.133h34.133 l0.009,34.133H281.6z"/> </g> </g> <g> <g> <path d="M230.4,324.267h-34.133c-9.412,0-17.067,7.654-17.067,17.067v34.133c0,9.412,7.654,17.067,17.067,17.067H230.4 c9.412,0,17.067-7.654,17.067-17.067v-34.133C247.467,331.921,239.812,324.267,230.4,324.267z M196.267,375.467v-34.133H230.4 l0.008,34.133H196.267z"/> </g> </g> <g> <g> <path d="M145.067,324.267h-34.133c-9.412,0-17.067,7.654-17.067,17.067v34.133c0,9.412,7.654,17.067,17.067,17.067h34.133 c9.412,0,17.067-7.654,17.067-17.067v-34.133C162.133,331.921,154.479,324.267,145.067,324.267z M110.933,375.467v-34.133h34.133 l0.009,34.133H110.933z"/> </g> </g> <g> <g> <path d="M315.733,238.933H281.6c-9.412,0-17.067,7.654-17.067,17.067v34.133c0,9.412,7.654,17.067,17.067,17.067h34.133 c9.412,0,17.067-7.654,17.067-17.067V256C332.8,246.588,325.146,238.933,315.733,238.933z M281.6,290.133V256h34.133l0.009,34.133 H281.6z"/> </g> </g> <g> <g> <path d="M230.4,238.933h-34.133c-9.412,0-17.067,7.654-17.067,17.067v34.133c0,9.412,7.654,17.067,17.067,17.067H230.4 c9.412,0,17.067-7.654,17.067-17.067V256C247.467,246.588,239.812,238.933,230.4,238.933z M196.267,290.133V256H230.4 l0.008,34.133H196.267z"/> </g> </g> <g> <g> <path d="M145.067,238.933h-34.133c-9.412,0-17.067,7.654-17.067,17.067v34.133c0,9.412,7.654,17.067,17.067,17.067h34.133 c9.412,0,17.067-7.654,17.067-17.067V256C162.133,246.588,154.479,238.933,145.067,238.933z M110.933,290.133V256h34.133 l0.009,34.133H110.933z"/> </g> </g> <g> <g> <path d="M401.067,238.933h-34.133c-9.412,0-17.067,7.654-17.067,17.067v34.133c0,9.412,7.654,17.067,17.067,17.067h34.133 c9.412,0,17.067-7.654,17.067-17.067V256C418.133,246.588,410.479,238.933,401.067,238.933z M366.933,290.133V256h34.133 l0.009,34.133H366.933z"/> </g> </g> </g>
</svg>