<!DOCTYPE svg PUBLIC "-//W3C//DTD SVG 1.1//EN" "http://www.w3.org/Graphics/SVG/1.1/DTD/svg11.dtd">
<!-- Uploaded to: SVG Repo, www.svgrepo.com, Transformed by: SVG Repo Mixer Tools -->
<svg fill="#2289ff" version="1.1" id="Layer_1" xmlns="http://www.w3.org/2000/svg" xmlns:xlink="http://www.w3.org/1999/xlink" viewBox="0 0 496 496" xml:space="preserve" width="800px" height="800px">
<g id="SVGRepo_bgCarrier" stroke-width="0"/>
<g id="SVGRepo_tracerCarrier" stroke-linecap="round" stroke-linejoin="round"/>
<g id="SVGRepo_iconCarrier"> <g> <g> <g> <path d="M258.592,40h-21.184L184,78.672V48h16V0H40v48h16v123.36L0,211.912V232h40v264h416V232h40v-20.088L258.592,40z M56,16 h128v16H56V16z M168,48v42.256l-96,69.52V48H168z M440,480H56V232h384V480z M448,216h-8H56h-8H21.64L242.592,56h10.816 L474.36,216H448z"/> <path d="M184,144c0,35.288,28.712,64,64,64c35.288,0,64-28.712,64-64c0-35.288-28.712-64-64-64C212.712,80,184,108.712,184,144z M296,144c0,26.472-21.528,48-48,48s-48-21.528-48-48s21.528-48,48-48S296,117.528,296,144z"/> <path d="M136.672,391.328C140.128,409.896,156.448,424,176,424c22.056,0,40-17.944,40-40v-8h64v32h48v-32h16v32h48v-80H216v-8 c0-22.056-17.944-40-40-40c-19.552,0-35.872,14.104-39.328,32.672C118.104,316.128,104,332.448,104,352 S118.104,387.872,136.672,391.328z M144,328h8v-8c0-13.232,10.768-24,24-24s24,10.768,24,24v24h176v48h-16v-32h-48v32h-16v-32 h-96v24c0,13.232-10.768,24-24,24s-24-10.768-24-24v-8h-8c-13.232,0-24-10.768-24-24S130.768,328,144,328z"/> <rect x="168" y="344" width="16" height="16"/> </g> </g> </g> </g>
</svg>