<!DOCTYPE svg PUBLIC "-//W3C//DTD SVG 1.1//EN" "http://www.w3.org/Graphics/SVG/1.1/DTD/svg11.dtd">
<!-- Uploaded to: SVG Repo, www.svgrepo.com, Transformed by: SVG Repo Mixer Tools -->
<svg fill="#fff" height="800px" width="800px" version="1.1" id="Layer_1" xmlns="http://www.w3.org/2000/svg" xmlns:xlink="http://www.w3.org/1999/xlink" viewBox="0 0 512 512" xml:space="preserve" stroke="#fff">
<g id="SVGRepo_bgCarrier" stroke-width="0"/>
<g id="SVGRepo_tracerCarrier" stroke-linecap="round" stroke-linejoin="round"/>
<g id="SVGRepo_iconCarrier"> <g> <g> <path d="M456.951,269.361c-4.427,0-8.017,3.588-8.017,8.017v218.588H63.065v-47.566c0-4.428-3.589-8.017-8.017-8.017 c-4.427,0-8.017,3.588-8.017,8.017v55.582c0,4.428,3.589,8.017,8.017,8.017h401.903c4.427,0,8.017-3.588,8.017-8.017V277.378 C464.968,272.95,461.378,269.361,456.951,269.361z"/> </g> </g> <g> <g> <path d="M508.828,189.755L260.845,1.63c-2.865-2.173-6.826-2.173-9.689,0l-98.304,74.574V50.239h9.086 c4.427,0,8.017-3.588,8.017-8.017V8.018c0-4.428-3.589-8.017-8.017-8.017H42.221c-4.427,0-8.017,3.588-8.017,8.017v34.205 c0,4.428,3.589,8.017,8.017,8.017h9.086v103L3.173,189.755c-2.743,2.081-3.851,5.68-2.753,8.943 c1.098,3.262,4.156,5.46,7.598,5.46h39.015v201.486c0,4.428,3.589,8.017,8.017,8.017c4.427,0,8.017-3.588,8.017-8.017V196.141 c0-4.428-3.589-8.017-8.017-8.017H31.849L256,18.08l224.152,170.046h-23.2c-4.427,0-8.017,3.588-8.017,8.017v38.48 c0,4.428,3.589,8.017,8.017,8.017c4.427,0,8.017-3.588,8.017-8.017v-30.463h39.015c3.443,0,6.501-2.199,7.598-5.46 C512.679,195.435,511.57,191.836,508.828,189.755z M50.238,34.205V16.034H153.92v18.171H50.238z M136.818,88.368L67.34,141.075 V50.239h69.478V88.368z"/> </g> </g> <g> <g> <path d="M426.776,371.442c0-10.168-4.527-19.374-11.764-25.58c7.198-6.179,11.764-15.342,11.764-25.55 c0-10.332-4.679-19.593-12.028-25.774c7.179-6.061,11.833-15.049,12.022-25.061c0.17-8.943-3.249-17.45-9.629-23.951 c-6.465-6.589-15.436-10.367-24.612-10.367h-98.784V181.18c0-22.103-17.981-40.083-40.083-40.083h-27.791 c-4.427,0-8.017,3.588-8.017,8.017v75.506l-13.573,36.193h-17.514v-17.637c0-4.43-3.589-8.019-8.017-8.019H93.239 c-4.427,0-8.017,3.588-8.017,8.017v205.227c0,4.428,3.589,8.017,8.017,8.017h85.511c4.427,0,8.017-3.588,8.017-8.017v-17.637 h15.053v1.603c0,13.261,10.788,24.05,24.05,24.05h42.956c4.427,0,8.017-3.588,8.017-8.017c0-4.428-3.589-8.017-8.017-8.017 h-42.956c-4.421,0-8.017-3.596-8.017-8.017v-9.62c0-4.428-3.589-8.017-8.017-8.017h-23.07V276.844h23.07 c3.341,0,6.333-2.073,7.506-5.201l16.033-42.756c0.338-0.901,0.511-1.853,0.511-2.815v-68.943h19.775 c13.262,0,24.05,10.789,24.05,24.05v61.996c0,4.428,3.589,8.017,8.017,8.017h106.8c9.711,0,18.398,8.108,18.211,17.981 c-0.181,9.534-8.092,17.292-17.634,17.292h-26.231c-4.427,0-8.017,3.588-8.017,8.017c0,4.428,3.589,8.017,8.017,8.017 c0,0,25.657,0.177,26.231,0.177c9.725,0,17.637,7.912,17.637,17.637c0,9.291-7.227,16.909-16.352,17.571 c-0.419-0.067-27.515-0.112-27.515-0.112c-4.427,0-8.017,3.588-8.017,8.017c0,4.428,3.589,8.017,8.017,8.017l28.706,0.177 c8.673,1.213,15.161,8.645,15.161,17.459c0,9.725-7.912,17.637-17.637,17.637h-26.231c-4.427,0-8.017,3.588-8.017,8.017 c0,4.428,3.589,8.017,8.017,8.017h26.231c9.542,0,17.453,7.758,17.633,17.294c0.187,9.873-8.501,17.98-18.211,17.98h-80.947 c-4.427,0-8.017,3.588-8.017,8.017s3.589,8.017,8.017,8.017h80.947c9.176,0,18.148-3.779,24.612-10.367 c6.379-6.501,9.799-15.007,9.629-23.95c-0.188-9.965-4.798-18.913-11.917-24.974C422.142,390.947,426.776,381.725,426.776,371.442 z M170.734,440.384h-69.478V251.19h69.478V440.384z"/> </g> </g> <g> <g> <path d="M136.572,380.526c-13.851,0-25.119,11.268-25.119,25.119s11.268,25.119,25.119,25.119 c13.851,0,25.119-11.268,25.119-25.119S150.423,380.526,136.572,380.526z M136.572,414.731c-5.01,0-9.086-4.076-9.086-9.086 s4.076-9.086,9.086-9.086c5.01,0,9.086,4.076,9.086,9.086S141.582,414.731,136.572,414.731z"/> </g> </g> </g>
</svg>