<!DOCTYPE svg PUBLIC "-//W3C//DTD SVG 1.1//EN" "http://www.w3.org/Graphics/SVG/1.1/DTD/svg11.dtd">
<!-- Uploaded to: SVG Repo, www.svgrepo.com, Transformed by: SVG Repo Mixer Tools -->
<svg fill="#fce38a" width="800px" height="800px" viewBox="-80 0 512 512" xmlns="http://www.w3.org/2000/svg">
<g id="SVGRepo_bgCarrier" stroke-width="0"/>
<g id="SVGRepo_tracerCarrier" stroke-linecap="round" stroke-linejoin="round"/>
<g id="SVGRepo_iconCarrier">
<title>i-asterisk</title>
<path d="M285 221Q243 246 210 256 243 266 285 291L261 333Q215 305 193 286 200 317 200 368L152 368Q152 317 159 286 137 305 91 333L67 291Q109 266 142 256 109 246 67 221L91 179Q137 207 159 226 152 195 152 144L200 144Q200 195 193 226 215 207 261 179L285 221Z"/>
</g>
</svg>