<svg id="Outline" xmlns="http://www.w3.org/2000/svg" viewBox="0 0 496 320.01">
  <defs>
    <style>
      .cls-1 {
        fill: #b8a669;
      }
    </style>
  </defs>
  <title>benefits-3</title>
  <path class="cls-1" d="M464,128V56a32,32,0,0,0-48.2-27.58A32,32,0,0,0,352,32v96H144V32a32,32,0,0,0-63.79-3.58A32,32,0,0,0,32,56v72a32,32,0,0,0,0,64v72a32,32,0,0,0,48.21,27.57A32,32,0,0,0,144,288V192H352v96a32,32,0,0,0,63.8,3.57A32,32,0,0,0,464,264V192a32,32,0,0,0,0-64ZM32,176a16,16,0,0,1,0-32ZM64,280a16,16,0,0,1-16-16V56a16,16,0,1,1,32,0V264A16,16,0,0,1,64,280Zm64,8a16,16,0,0,1-32,0V32a16,16,0,1,1,32,0Zm16-112V144H352v32ZM400,288a16,16,0,0,1-32,0V32a16,16,0,0,1,32,0Zm48-24a16,16,0,0,1-32,0V56a16,16,0,1,1,32,0Zm16-88V144a16,16,0,0,1,0,32Z"/>
</svg>
