<svg id="Layer_1" data-name="Layer 1" xmlns="http://www.w3.org/2000/svg" viewBox="0 0 392.53 512">
  <defs>
    <style>
      .cls-1 {
        fill: #b8a669;
      }
    </style>
  </defs>
  <title>benefits-2</title>
  <g id="_015---Lifts" data-name="015---Lifts">
    <path id="Shape" class="cls-1" d="M59.73,204.8V486.4A25.6,25.6,0,0,0,85.33,512H426.67a25.6,25.6,0,0,0,25.6-25.6V204.8a25.6,25.6,0,0,0-25.6-25.6H85.33A25.6,25.6,0,0,0,59.73,204.8Zm375.47,0V486.4a8.53,8.53,0,0,1-8.53,8.53H85.33a8.53,8.53,0,0,1-8.53-8.53V204.8a8.53,8.53,0,0,1,8.53-8.53H426.67A8.53,8.53,0,0,1,435.2,204.8Z" transform="translate(-59.73)"/>
    <path id="Shape-2" data-name="Shape" class="cls-1" d="M174.22,5a17.08,17.08,0,0,0-24.14,0L90.35,64.73A17.07,17.07,0,0,0,102.4,93.87h17.07v51.2a17.06,17.06,0,0,0,17.06,17.06h51.2a17.06,17.06,0,0,0,17.07-17.06V93.87h17.07a17.07,17.07,0,0,0,12.06-29.14Zm47.71,71.8H196.27a8.53,8.53,0,0,0-8.54,8.53v59.74h-51.2V85.33A8.53,8.53,0,0,0,128,76.8H102.4l59.73-59.73L221.91,76.8Z" transform="translate(-59.73)"/>
    <path id="Shape-3" data-name="Shape" class="cls-1" d="M375.47,0h-51.2A17.07,17.07,0,0,0,307.2,17.07v51.2H290.13A17.06,17.06,0,0,0,278.07,97.4l59.73,59.73a17.05,17.05,0,0,0,24.13,0L421.67,97.4A17.07,17.07,0,0,0,409.6,68.27H392.53V17.07A17.06,17.06,0,0,0,375.47,0ZM409.6,85.33l-59.73,59.74L290.13,85.33h25.6a8.53,8.53,0,0,0,8.54-8.53V17.07h51.2V76.8A8.53,8.53,0,0,0,384,85.33Z" transform="translate(-59.73)"/>
    <path id="Shape-4" data-name="Shape" class="cls-1" d="M119.47,375.47A25.35,25.35,0,0,0,128,373.9v86.9a25.73,25.73,0,0,0,25.6,25.6,25.45,25.45,0,0,0,17.07-6.68,25,25,0,0,0,17.06,6.68,25.6,25.6,0,0,0,25.6-25.6V373.9a25.35,25.35,0,0,0,34.14-24V315.73a42.63,42.63,0,0,0-42.67-42.66h-.22a42.22,42.22,0,0,0,8.75-25.6,42.67,42.67,0,1,0-85.33,0,42.23,42.23,0,0,0,8.76,25.6h-.23a42.7,42.7,0,0,0-42.66,42.66v34.14A25.6,25.6,0,0,0,119.47,375.47Zm25.6-128a25.6,25.6,0,1,1,25.6,25.6A25.6,25.6,0,0,1,145.07,247.47Zm-34.14,68.26a25.6,25.6,0,0,1,25.6-25.6H204.8a25.56,25.56,0,0,1,25.6,25.6v34.14a8.54,8.54,0,0,1-17.07,0V315.73a8.53,8.53,0,0,0-17.06,0V460.8a8.53,8.53,0,0,1-8.54,8.53,8.25,8.25,0,0,1-6.07-2.61,8.17,8.17,0,0,1-2.46-5.92V375.47a8.54,8.54,0,1,0-17.07,0V460.8a8.53,8.53,0,0,1-8.53,8.53,8.29,8.29,0,0,1-6.08-2.61,8.12,8.12,0,0,1-2.45-5.92V315.73a8.54,8.54,0,0,0-17.07,0v34.14a8.54,8.54,0,0,1-17.07,0Z" transform="translate(-59.73)"/>
    <path id="Shape-5" data-name="Shape" class="cls-1" d="M290.13,375.47a25.41,25.41,0,0,0,8.54-1.57v86.9a25.73,25.73,0,0,0,25.6,25.6,25.43,25.43,0,0,0,17.06-6.68,25.06,25.06,0,0,0,17.07,6.68A25.6,25.6,0,0,0,384,460.8V373.9a25.35,25.35,0,0,0,34.13-24V315.73a42.61,42.61,0,0,0-42.66-42.66h-.23a42.23,42.23,0,0,0,8.76-25.6,42.67,42.67,0,1,0-85.33,0,42.22,42.22,0,0,0,8.75,25.6h-.22a42.71,42.71,0,0,0-42.67,42.66v34.14a25.6,25.6,0,0,0,25.6,25.6Zm25.6-128a25.6,25.6,0,1,1,25.6,25.6A25.6,25.6,0,0,1,315.73,247.47ZM281.6,315.73a25.6,25.6,0,0,1,25.6-25.6h68.27a25.57,25.57,0,0,1,25.6,25.6v34.14a8.54,8.54,0,0,1-17.07,0V315.73a8.54,8.54,0,0,0-17.07,0V460.8a8.53,8.53,0,0,1-8.53,8.53,8.29,8.29,0,0,1-6.08-2.61,8.12,8.12,0,0,1-2.45-5.92V375.47a8.54,8.54,0,1,0-17.07,0V460.8a8.53,8.53,0,0,1-8.53,8.53,8.29,8.29,0,0,1-6.08-2.61,8.17,8.17,0,0,1-2.46-5.92V315.73a8.53,8.53,0,0,0-17.06,0v34.14a8.54,8.54,0,0,1-17.07,0Z" transform="translate(-59.73)"/>
  </g>
</svg>
