<svg id="Capa_1" data-name="Capa 1" xmlns="http://www.w3.org/2000/svg" viewBox="0 0 346.33 512">
  <defs>
    <style>
      .cls-1 {
        fill: #b8a669;
      }
    </style>
  </defs>
  <title>benefits-4</title>
  <path class="cls-1" d="M156.6,49.7H131.75a7.5,7.5,0,0,0,0,15H156.6a7.5,7.5,0,0,0,0-15Z" transform="translate(-82.83)"/>
  <path class="cls-1" d="M380.25,49.7H355.4a7.5,7.5,0,0,0,0,15h24.85a7.5,7.5,0,0,0,0-15Z" transform="translate(-82.83)"/>
  <path class="cls-1" d="M388.54,16.56H326.9L320.69,4.14A7.5,7.5,0,0,0,314,0H198a7.51,7.51,0,0,0-6.71,4.15L185.1,16.56H123.47A40.68,40.68,0,0,0,82.83,57.2V388.53a40.68,40.68,0,0,0,40.64,40.63H156.6a7.39,7.39,0,0,0,2.36-.38l-42,71.94a7.5,7.5,0,0,0,13,7.56l55.81-95.68h15.77l-51.41,88.12a7.5,7.5,0,0,0,13,7.56l12.33-21.13H336.6l12.32,21.12a7.51,7.51,0,0,0,6.49,3.72,7.4,7.4,0,0,0,3.77-1,7.51,7.51,0,0,0,2.7-10.26l-51.4-88.11h15.77l55.81,95.68A7.5,7.5,0,1,0,395,500.72l-42-71.94a7.33,7.33,0,0,0,2.35.38h33.13a40.68,40.68,0,0,0,40.64-40.63V57.2A40.68,40.68,0,0,0,388.54,16.56Zm-191.3,9.28L202.66,15H248.5v9.06a7.5,7.5,0,1,0,15,0V15h45.85l5.42,10.83V49.7H197.24ZM164.1,420V412.6h4.3ZM317.27,454l10.58,18.13H184.16L194.74,454ZM203.49,439,218.9,412.6h74.21L308.52,439ZM347.9,420l-4.29-7.36h4.29Zm66.27-31.43a25.66,25.66,0,0,1-25.63,25.63H362.9V405.1a7.5,7.5,0,0,0-7.5-7.5H297.53c-.14,0-.28,0-.42,0H156.6a7.5,7.5,0,0,0-7.5,7.5v9.06H123.47a25.66,25.66,0,0,1-25.64-25.63v-9.07H206.3a7.51,7.51,0,0,0,6.24-3.34l14.34-21.51h58.24l14.34,21.51a7.51,7.51,0,0,0,6.24,3.34H414.17Zm0-24.06H309.71L295.37,343a7.49,7.49,0,0,0-6.24-3.34H222.87a7.49,7.49,0,0,0-6.24,3.34l-14.34,21.51H97.83V296.63H414.17Zm0-82.84H97.83V97.83H414.17Zm0-198.8H97.83V57.2a25.67,25.67,0,0,1,25.64-25.64h58.77V57.2a7.5,7.5,0,0,0,7.5,7.5H322.27a7.5,7.5,0,0,0,7.5-7.5V31.56h58.77A25.66,25.66,0,0,1,414.17,57.2V82.83Z" transform="translate(-82.83)"/>
  <path class="cls-1" d="M396.82,107.68H115.19a7.5,7.5,0,0,0-7.5,7.5v149.1a7.49,7.49,0,0,0,7.5,7.5H396.82a7.5,7.5,0,0,0,7.5-7.5V115.18A7.5,7.5,0,0,0,396.82,107.68Zm-7.5,149.1H122.69V122.68H389.32Z" transform="translate(-82.83)"/>
  <path class="cls-1" d="M156.6,49.7H131.75a7.5,7.5,0,0,0,0,15H156.6a7.5,7.5,0,0,0,0-15Z" transform="translate(-82.83)"/>
  <path class="cls-1" d="M380.25,49.7H355.4a7.5,7.5,0,0,0,0,15h24.85a7.5,7.5,0,0,0,0-15Z" transform="translate(-82.83)"/>
  <path class="cls-1" d="M173.17,306.48H140a24.07,24.07,0,1,0,0,48.13h33.13a24.07,24.07,0,1,0,0-48.13Zm0,33.14H140a9.07,9.07,0,0,1,0-18.14h33.13a9.07,9.07,0,1,1,0,18.14Z" transform="translate(-82.83)"/>
  <path class="cls-1" d="M372,306.48H338.84a24.07,24.07,0,0,0,0,48.14H372a24.07,24.07,0,0,0,0-48.14Zm0,33.13H338.84a9.07,9.07,0,1,1,0-18.13H372a9.07,9.07,0,1,1,0,18.13Z" transform="translate(-82.83)"/>
</svg>
