<svg id="Capa_1" data-name="Capa 1" xmlns="http://www.w3.org/2000/svg" viewBox="0 0 512 512">
  <defs>
    <style>
      .cls-1 {
        fill: #b8a669;
      }
    </style>
  </defs>
  <title>benefits-1</title>
  <g>
    <path class="cls-1" d="M504.5,135H284.8C280.89,59.9,218.56,0,142.5,0,63.92,0,0,63.92,0,142.5v227C0,448.08,63.92,512,142.5,512h362a7.5,7.5,0,0,0,7.5-7.5v-362A7.5,7.5,0,0,0,504.5,135ZM15,142.5a127.5,127.5,0,0,1,255,0V305.91a142.46,142.46,0,0,0-255,0Zm0,227A127.5,127.5,0,1,1,142.5,497,127.65,127.65,0,0,1,15,369.5ZM206.09,497A142.66,142.66,0,0,0,285,369.5V150H467V324.5A37.54,37.54,0,0,1,429.5,362h-90a7.5,7.5,0,0,0-7.5,7.5v90A37.54,37.54,0,0,1,294.5,497Zm224-120L347,460.05c0-.19,0-.37,0-.55V377h83.05ZM497,497H331.19l.42-.39s135-135,135-135A52.38,52.38,0,0,0,482,324.5V150h15Z" transform="translate(0)"/>
    <path class="cls-1" d="M142.5,452A82.5,82.5,0,1,0,60,369.5,82.59,82.59,0,0,0,142.5,452Zm0-150A67.5,67.5,0,1,1,75,369.5,67.58,67.58,0,0,1,142.5,302Z" transform="translate(0)"/>
    <path class="cls-1" d="M142.5,422A52.5,52.5,0,1,0,90,369.5,52.56,52.56,0,0,0,142.5,422Zm0-90A37.5,37.5,0,1,1,105,369.5,37.54,37.54,0,0,1,142.5,332Z" transform="translate(0)"/>
    <path class="cls-1" d="M142.5,257a111.6,111.6,0,0,0-67.38,22.4,7.5,7.5,0,0,0,9,12,97.48,97.48,0,1,1-19.7,19.7,7.5,7.5,0,0,0-12-9A112.51,112.51,0,1,0,142.5,257Z" transform="translate(0)"/>
  </g>
</svg>
