<svg id="Capa_1" data-name="Capa 1" xmlns="http://www.w3.org/2000/svg" viewBox="0 0 480 480">
  <defs>
    <style>
      .cls-1 {
        fill: #b8a669;
      }
    </style>
  </defs>
  <title>benefits-6</title>
  <path class="cls-1" d="M472,48a8,8,0,0,0,8-8V8a8,8,0,0,0-8-8H8A8,8,0,0,0,0,8V40a8,8,0,0,0,8,8H24V432H8a8,8,0,0,0-8,8v32a8,8,0,0,0,8,8H472a8,8,0,0,0,8-8V440a8,8,0,0,0-8-8H456V48Zm-8,400v16H16V448ZM40,432V48H440V432ZM16,32V16H464V32Z"/>
  <path class="cls-1" d="M224,64H64a8,8,0,0,0-8,8V408a8,8,0,0,0,8,8H224a8,8,0,0,0,8-8V72A8,8,0,0,0,224,64ZM136,400H72V304h64Zm0-112H72V192h64Zm0-112H72V80h64Zm80,224H152V304h64Zm0-112H152V192h64Zm0-112H152V80h64Z"/>
  <path class="cls-1" d="M416,64H256a8,8,0,0,0-8,8V408a8,8,0,0,0,8,8H416a8,8,0,0,0,8-8V72A8,8,0,0,0,416,64ZM328,400H264V304h64Zm0-112H264V192h64Zm0-112H264V80h64Zm80,224H344V304h64Zm0-112H344V192h64Zm0-112H344V80h64Z"/>
</svg>
