<svg id="Capa_1" data-name="Capa 1" xmlns="http://www.w3.org/2000/svg" viewBox="0 0 512 487.17">
  <defs>
    <style>
      .cls-1 {
        fill: #b8a669;
      }
    </style>
  </defs>
  <title>benefits-5</title>
  <path class="cls-1" d="M498.11,419.27A10,10,0,0,0,485,424.61a89.78,89.78,0,0,1-170.79-17.18c0-.16,0-.31,0-.47a49.63,49.63,0,0,0-1.66-12.75c-.07-1.45-.1-2.91-.1-4.38a89.9,89.9,0,0,1,55.95-83.14l24.17,85.85a10,10,0,0,0,9.62,7.3,9.86,9.86,0,0,0,2.72-.38,10,10,0,0,0,6.91-12.34l-24.16-85.85A89.75,89.75,0,0,1,484.55,354a10,10,0,1,0,18.33-8,109.83,109.83,0,0,0-120.62-64.06l-.86-3a229.25,229.25,0,0,1-6.48-31.29h0q-1.23-9.16-1.73-18.41a10,10,0,0,0,9.81,8h13.66a34.31,34.31,0,1,0,0-68.61h-30l-76.7-68a45.05,45.05,0,1,0-26.05-20.08,55.79,55.79,0,0,0-62.49,11.33l-81.89,81.89-.06.07a8.67,8.67,0,0,0-.74.85l-.09.1,0,0A45,45,0,0,0,109.83,199H90.17a10,10,0,0,0-10,10V221.2A37.81,37.81,0,0,0,117.94,259h11.85l-5.13,22.14a111.12,111.12,0,0,0-14.91-1A109.71,109.71,0,0,0,46.66,479.58H10a10,10,0,0,0,0,20h99.75A109.93,109.93,0,0,0,218,408.2a10,10,0,0,0,9.91,8.76h68a110.14,110.14,0,0,0,43.26,62.62H275.67a10,10,0,0,0,0,20H402.25a109.56,109.56,0,0,0,101.2-67.21A10,10,0,0,0,498.11,419.27ZM372.87,188.59h23.79a14.31,14.31,0,1,1,0,28.61H383a10,10,0,0,0-9.95,9q-.18-4.51-.18-9V188.59Zm-19,50.37H253.62c-1.6-1.91-3.29-3.77-5.06-5.55L217,201.89l41.52-41.52,94.6,68.53Q353.4,233.94,353.84,239Zm-14.76,20-61.27,55.5L272,278.18a1.55,1.55,0,0,0,0-.21,84.15,84.15,0,0,0-5.85-19ZM302.5,32.41a25,25,0,1,1-25,25A25,25,0,0,1,302.5,32.41ZM215.57,106a35.73,35.73,0,0,1,50.54,0l86.76,77.05V204l-89.48-64.82a10,10,0,0,0-12.94,1L200,190.71l-33.38-9.22-20.74-5.73ZM117.94,239a17.79,17.79,0,0,1-17.77-17.77V219h12a59.17,59.17,0,0,0,10.52,20Zm-8.19,240.62a89.75,89.75,0,1,1,10.38-178.89L100,387.58a10,10,0,0,0,9.74,12.25h89.19A89.87,89.87,0,0,1,109.75,479.58Zm12.58-99.75,17.28-74.63a90,90,0,0,1,59.33,74.63Zm21.82-94.22,6.14-26.51,47.93,27.67L214,355.38A110.27,110.27,0,0,0,144.15,285.61Zm72.59-7.56a10,10,0,0,0-4.75-6.42l-64.74-37.38c-8.26-4.77-14.7-14.18-16.82-24.54a30.71,30.71,0,0,1,1-17.16l29.12,8,37.1,10.24,36.72,36.72a64.18,64.18,0,0,1,17.83,33.92L264.39,357H234.84ZM237.87,397V377h26.39a30,30,0,0,1,28.28,20Zm56.93-29.55a50.22,50.22,0,0,0-9.39-5.74L281.6,338l76.68-69.46q1.68,7.92,3.87,15.73l.86,3A110.17,110.17,0,0,0,294.8,367.41Z" transform="translate(0 -12.41)"/>
  <path class="cls-1" d="M502,379.83a10,10,0,0,0-10,10v.47a10,10,0,0,0,10,10h0a10,10,0,0,0,10-10v-.53A10,10,0,0,0,502,379.83Z" transform="translate(0 -12.41)"/>
  <path class="cls-1" d="M243.4,482.52a10,10,0,1,0,2.93,7.07A10,10,0,0,0,243.4,482.52Z" transform="translate(0 -12.41)"/>
</svg>
