<!DOCTYPE svg PUBLIC "-//W3C//DTD SVG 1.1//EN" "http://www.w3.org/Graphics/SVG/1.1/DTD/svg11.dtd">
<!-- Uploaded to: SVG Repo, www.svgrepo.com, Transformed by: SVG Repo Mixer Tools -->
<svg fill="#ffffff" height="800px" width="800px" version="1.1" id="Layer_1" xmlns="http://www.w3.org/2000/svg" xmlns:xlink="http://www.w3.org/1999/xlink" viewBox="0 0 512 512" xml:space="preserve" stroke="#ffffff">
<g id="SVGRepo_bgCarrier" stroke-width="0"/>
<g id="SVGRepo_tracerCarrier" stroke-linecap="round" stroke-linejoin="round"/>
<g id="SVGRepo_iconCarrier"> <g> <g> <path d="M277.347,79.644h-108c-6.283,0-10.058,4.993-10.058,11.276v147.911c0,6.283,3.775,11.479,10.058,11.479h108 c47.1,0,85.422-38.278,85.422-85.333S324.447,79.644,277.347,79.644z M277.347,227.556h-95.303V102.4h95.303 c34.555,0,62.667,28.072,62.667,62.578S311.903,227.556,277.347,227.556z"/> </g> </g> <g> <g> <path d="M294.414,0H78.325c-6.283,0-10.058,4.993-10.058,11.276v489.245c0,6.283,3.775,11.479,10.058,11.479h91.022 c6.283,0,12.697-5.196,12.697-11.479V329.956h112.37c81.605,0,149.319-66.451,149.319-148.007V147.81 C443.733,66.249,376.019,0,294.414,0z M420.978,181.949c0,69.006-57.503,125.251-126.564,125.251H169.347 c-6.283,0-10.058,4.993-10.058,11.276v170.768H91.022V22.756h203.392c69.061,0,126.564,56.043,126.564,125.054V181.949z"/> </g> </g> </g>
</svg>