<!DOCTYPE svg PUBLIC "-//W3C//DTD SVG 1.1//EN" "http://www.w3.org/Graphics/SVG/1.1/DTD/svg11.dtd">
<!-- Uploaded to: SVG Repo, www.svgrepo.com, Transformed by: SVG Repo Mixer Tools -->
<svg fill="#2289ff" height="800px" width="800px" version="1.1" id="Layer_1" xmlns="http://www.w3.org/2000/svg" xmlns:xlink="http://www.w3.org/1999/xlink" viewBox="0 0 512 512" xml:space="preserve">
<g id="SVGRepo_bgCarrier" stroke-width="0"/>
<g id="SVGRepo_tracerCarrier" stroke-linecap="round" stroke-linejoin="round"/>
<g id="SVGRepo_iconCarrier"> <g transform="translate(1 1)"> <g> <g> <path d="M408.6,229.4c-5.12,0-8.533,3.413-8.533,8.533v8.533c0,5.12,3.413,8.533,8.533,8.533s8.533-3.413,8.533-8.533v-8.533 C417.133,232.813,413.72,229.4,408.6,229.4z"/> <path d="M408.6,301.08c-5.12,0-8.533,3.413-8.533,8.533v12.8c0,5.12,3.413,8.533,8.533,8.533s8.533-4.267,8.533-8.533v-12.8 C417.133,304.493,413.72,301.08,408.6,301.08z"/> <path d="M408.6,263.533c-5.12,0-8.533,3.413-8.533,8.533v12.8c0,5.12,3.413,8.533,8.533,8.533s8.533-4.267,8.533-8.533v-12.8 C417.133,266.947,413.72,263.533,408.6,263.533z"/> <path d="M408.6,340.333c-5.12,0-8.533,3.413-8.533,8.533v12.8c0,5.12,3.413,8.533,8.533,8.533s8.533-4.267,8.533-8.533v-12.8 C417.133,343.747,413.72,340.333,408.6,340.333z"/> <path d="M408.6,415.427c-5.12,0-8.533,3.413-8.533,8.533v12.8c0,5.12,3.413,8.533,8.533,8.533s8.533-4.267,8.533-8.533v-12.8 C417.133,418.84,413.72,415.427,408.6,415.427z"/> <path d="M408.6,377.88c-5.12,0-8.533,3.413-8.533,8.533v12.8c0,5.12,3.413,8.533,8.533,8.533s8.533-4.267,8.533-8.533v-12.8 C417.133,381.293,413.72,377.88,408.6,377.88z"/> <path d="M408.6,451.267c-5.12,0-8.533,3.413-8.533,8.533v8.533c0,5.12,3.413,8.533,8.533,8.533s8.533-3.413,8.533-8.533V459.8 C417.133,454.68,413.72,451.267,408.6,451.267z"/> <path d="M459.8,229.4c-5.12,0-8.533,3.413-8.533,8.533v8.533c0,5.12,3.413,8.533,8.533,8.533c5.12,0,8.533-3.413,8.533-8.533 v-8.533C468.333,232.813,464.92,229.4,459.8,229.4z"/> <path d="M459.8,263.533c-5.12,0-8.533,3.413-8.533,8.533v12.8c0,5.12,3.413,8.533,8.533,8.533c5.12,0,8.533-4.267,8.533-8.533 v-12.8C468.333,266.947,464.92,263.533,459.8,263.533z"/> <path d="M459.8,301.08c-5.12,0-8.533,3.413-8.533,8.533v12.8c0,5.12,3.413,8.533,8.533,8.533c5.12,0,8.533-4.267,8.533-8.533 v-12.8C468.333,304.493,464.92,301.08,459.8,301.08z"/> <path d="M459.8,415.427c-5.12,0-8.533,3.413-8.533,8.533v12.8c0,5.12,3.413,8.533,8.533,8.533c5.12,0,8.533-4.267,8.533-8.533 v-12.8C468.333,418.84,464.92,415.427,459.8,415.427z"/> <path d="M459.8,377.88c-5.12,0-8.533,3.413-8.533,8.533v12.8c0,5.12,3.413,8.533,8.533,8.533c5.12,0,8.533-4.267,8.533-8.533 v-12.8C468.333,381.293,464.92,377.88,459.8,377.88z"/> <path d="M459.8,340.333c-5.12,0-8.533,3.413-8.533,8.533v12.8c0,5.12,3.413,8.533,8.533,8.533c5.12,0,8.533-4.267,8.533-8.533 v-12.8C468.333,343.747,464.92,340.333,459.8,340.333z"/> <path d="M459.8,451.267c-5.12,0-8.533,3.413-8.533,8.533v8.533c0,5.12,3.413,8.533,8.533,8.533c5.12,0,8.533-3.413,8.533-8.533 V459.8C468.333,454.68,464.92,451.267,459.8,451.267z"/> <path d="M178.2,101.4c-5.12,0-8.533,3.413-8.533,8.533V127c0,5.12,3.413,8.533,8.533,8.533s8.533-3.413,8.533-8.533v-17.067 C186.733,104.813,183.32,101.4,178.2,101.4z"/> <path d="M178.2,306.2c-5.12,0-8.533,3.413-8.533,8.533V331.8c0,5.12,3.413,8.533,8.533,8.533s8.533-3.413,8.533-8.533v-17.067 C186.733,309.613,183.32,306.2,178.2,306.2z"/> <path d="M178.2,203.8c-5.12,0-8.533,3.413-8.533,8.533V229.4c0,5.12,3.413,8.533,8.533,8.533s8.533-3.413,8.533-8.533v-17.067 C186.733,207.213,183.32,203.8,178.2,203.8z"/> <path d="M178.2,152.6c-5.12,0-8.533,3.413-8.533,8.533V178.2c0,5.12,3.413,8.533,8.533,8.533s8.533-3.413,8.533-8.533v-17.067 C186.733,156.013,183.32,152.6,178.2,152.6z"/> <path d="M178.2,408.6c-5.12,0-8.533,3.413-8.533,8.533V434.2c0,5.12,3.413,8.533,8.533,8.533s8.533-3.413,8.533-8.533v-17.067 C186.733,412.013,183.32,408.6,178.2,408.6z"/> <path d="M178.2,459.8c-5.12,0-8.533,3.413-8.533,8.533v8.533c0,5.12,3.413,8.533,8.533,8.533s8.533-3.413,8.533-8.533v-8.533 C186.733,463.213,183.32,459.8,178.2,459.8z"/> <path d="M178.2,357.4c-5.12,0-8.533,3.413-8.533,8.533V383c0,5.12,3.413,8.533,8.533,8.533s8.533-3.413,8.533-8.533v-17.067 C186.733,360.813,183.32,357.4,178.2,357.4z"/> <path d="M178.2,255c-5.12,0-8.533,3.413-8.533,8.533V280.6c0,5.12,3.413,8.533,8.533,8.533s8.533-3.413,8.533-8.533v-17.067 C186.733,258.413,183.32,255,178.2,255z"/> <path d="M229.4,101.4c-5.12,0-8.533,3.413-8.533,8.533V127c0,5.12,3.413,8.533,8.533,8.533s8.533-3.413,8.533-8.533v-17.067 C237.933,104.813,234.52,101.4,229.4,101.4z"/> <path d="M229.4,306.2c-5.12,0-8.533,3.413-8.533,8.533V331.8c0,5.12,3.413,8.533,8.533,8.533s8.533-3.413,8.533-8.533v-17.067 C237.933,309.613,234.52,306.2,229.4,306.2z"/> <path d="M229.4,152.6c-5.12,0-8.533,3.413-8.533,8.533V178.2c0,5.12,3.413,8.533,8.533,8.533s8.533-3.413,8.533-8.533v-17.067 C237.933,156.013,234.52,152.6,229.4,152.6z"/> <path d="M229.4,203.8c-5.12,0-8.533,3.413-8.533,8.533V229.4c0,5.12,3.413,8.533,8.533,8.533s8.533-3.413,8.533-8.533v-17.067 C237.933,207.213,234.52,203.8,229.4,203.8z"/> <path d="M229.4,408.6c-5.12,0-8.533,3.413-8.533,8.533V434.2c0,5.12,3.413,8.533,8.533,8.533s8.533-3.413,8.533-8.533v-17.067 C237.933,412.013,234.52,408.6,229.4,408.6z"/> <path d="M229.4,357.4c-5.12,0-8.533,3.413-8.533,8.533V383c0,5.12,3.413,8.533,8.533,8.533s8.533-3.413,8.533-8.533v-17.067 C237.933,360.813,234.52,357.4,229.4,357.4z"/> <path d="M229.4,459.8c-5.12,0-8.533,3.413-8.533,8.533v8.533c0,5.12,3.413,8.533,8.533,8.533s8.533-3.413,8.533-8.533v-8.533 C237.933,463.213,234.52,459.8,229.4,459.8z"/> <path d="M229.4,255c-5.12,0-8.533,3.413-8.533,8.533V280.6c0,5.12,3.413,8.533,8.533,8.533s8.533-3.413,8.533-8.533v-17.067 C237.933,258.413,234.52,255,229.4,255z"/> <path d="M280.6,255c-5.12,0-8.533,3.413-8.533,8.533V280.6c0,5.12,3.413,8.533,8.533,8.533s8.533-3.413,8.533-8.533v-17.067 C289.133,258.413,285.72,255,280.6,255z"/> <path d="M280.6,203.8c-5.12,0-8.533,3.413-8.533,8.533V229.4c0,5.12,3.413,8.533,8.533,8.533s8.533-3.413,8.533-8.533v-17.067 C289.133,207.213,285.72,203.8,280.6,203.8z"/> <path d="M280.6,101.4c-5.12,0-8.533,3.413-8.533,8.533V127c0,5.12,3.413,8.533,8.533,8.533s8.533-3.413,8.533-8.533v-17.067 C289.133,104.813,285.72,101.4,280.6,101.4z"/> <path d="M280.6,152.6c-5.12,0-8.533,3.413-8.533,8.533V178.2c0,5.12,3.413,8.533,8.533,8.533s8.533-3.413,8.533-8.533v-17.067 C289.133,156.013,285.72,152.6,280.6,152.6z"/> <path d="M280.6,408.6c-5.12,0-8.533,3.413-8.533,8.533V434.2c0,5.12,3.413,8.533,8.533,8.533s8.533-3.413,8.533-8.533v-17.067 C289.133,412.013,285.72,408.6,280.6,408.6z"/> <path d="M280.6,306.2c-5.12,0-8.533,3.413-8.533,8.533V331.8c0,5.12,3.413,8.533,8.533,8.533s8.533-3.413,8.533-8.533v-17.067 C289.133,309.613,285.72,306.2,280.6,306.2z"/> <path d="M280.6,459.8c-5.12,0-8.533,3.413-8.533,8.533v8.533c0,5.12,3.413,8.533,8.533,8.533s8.533-3.413,8.533-8.533v-8.533 C289.133,463.213,285.72,459.8,280.6,459.8z"/> <path d="M280.6,357.4c-5.12,0-8.533,3.413-8.533,8.533V383c0,5.12,3.413,8.533,8.533,8.533s8.533-3.413,8.533-8.533v-17.067 C289.133,360.813,285.72,357.4,280.6,357.4z"/> <path d="M331.8,306.2c-5.12,0-8.533,3.413-8.533,8.533V331.8c0,5.12,3.413,8.533,8.533,8.533c5.12,0,8.533-3.413,8.533-8.533 v-17.067C340.333,309.613,336.92,306.2,331.8,306.2z"/> <path d="M331.8,101.4c-5.12,0-8.533,3.413-8.533,8.533V127c0,5.12,3.413,8.533,8.533,8.533c5.12,0,8.533-3.413,8.533-8.533 v-17.067C340.333,104.813,336.92,101.4,331.8,101.4z"/> <path d="M331.8,203.8c-5.12,0-8.533,3.413-8.533,8.533V229.4c0,5.12,3.413,8.533,8.533,8.533c5.12,0,8.533-3.413,8.533-8.533 v-17.067C340.333,207.213,336.92,203.8,331.8,203.8z"/> <path d="M331.8,152.6c-5.12,0-8.533,3.413-8.533,8.533V178.2c0,5.12,3.413,8.533,8.533,8.533c5.12,0,8.533-3.413,8.533-8.533 v-17.067C340.333,156.013,336.92,152.6,331.8,152.6z"/> <path d="M331.8,459.8c-5.12,0-8.533,3.413-8.533,8.533v8.533c0,5.12,3.413,8.533,8.533,8.533c5.12,0,8.533-3.413,8.533-8.533 v-8.533C340.333,463.213,336.92,459.8,331.8,459.8z"/> <path d="M331.8,357.4c-5.12,0-8.533,3.413-8.533,8.533V383c0,5.12,3.413,8.533,8.533,8.533c5.12,0,8.533-3.413,8.533-8.533 v-17.067C340.333,360.813,336.92,357.4,331.8,357.4z"/> <path d="M331.8,408.6c-5.12,0-8.533,3.413-8.533,8.533V434.2c0,5.12,3.413,8.533,8.533,8.533c5.12,0,8.533-3.413,8.533-8.533 v-17.067C340.333,412.013,336.92,408.6,331.8,408.6z"/> <path d="M331.8,255c-5.12,0-8.533,3.413-8.533,8.533V280.6c0,5.12,3.413,8.533,8.533,8.533c5.12,0,8.533-3.413,8.533-8.533 v-17.067C340.333,258.413,336.92,255,331.8,255z"/> <path d="M502.467,203.8H485.4v-25.6c0-5.12-3.413-8.533-8.533-8.533H434.2v-25.6c0-5.12-3.413-8.533-8.533-8.533 s-8.533,3.413-8.533,8.533v25.6H383V75.8c0-5.12-3.413-8.533-8.533-8.533H357.4v-25.6c0-5.12-3.413-8.533-8.533-8.533h-85.333 v-25.6C263.533,2.413,260.12-1,255-1s-8.533,3.413-8.533,8.533v25.6h-85.333c-5.12,0-8.533,3.413-8.533,8.533v25.6h-17.067 c-5.12,0-8.533,3.413-8.533,8.533v17.067H92.867v-25.6c0-5.12-3.413-8.533-8.533-8.533c-5.12,0-8.533,3.413-8.533,8.533v25.6 H33.133c-5.12,0-8.533,3.413-8.533,8.533V127H7.533C2.413,127-1,130.413-1,135.533v366.933c0,2.56,0.853,4.267,2.56,5.973 c1.707,1.707,3.413,2.56,5.973,2.56h128h238.933h128c5.12,0,8.533-3.413,8.533-8.533V212.333 C511,207.213,507.587,203.8,502.467,203.8z M468.333,186.733V203.8H383v-17.067H468.333z M169.667,50.2h170.667v17.067H169.667 V50.2z M41.667,109.933H127V127H41.667V109.933z M16.067,144.067h17.067H127v349.867H16.067V144.067z M144.067,135.533V101.4 V84.333h17.067h187.733h17.067V178.2v34.133v281.6H144.067V135.533z M493.933,493.933H383V220.867h93.867h17.067V493.933z"/> <path d="M50.2,263.533c-5.12,0-8.533,3.413-8.533,8.533v17.067c0,5.12,3.413,8.533,8.533,8.533s8.533-3.413,8.533-8.533v-17.067 C58.733,266.947,55.32,263.533,50.2,263.533z"/> <path d="M50.2,417.133c-5.12,0-8.533,3.413-8.533,8.533v17.067c0,5.12,3.413,8.533,8.533,8.533s8.533-3.413,8.533-8.533v-17.067 C58.733,420.547,55.32,417.133,50.2,417.133z"/> <path d="M50.2,314.733c-5.12,0-8.533,3.413-8.533,8.533v17.067c0,5.12,3.413,8.533,8.533,8.533s8.533-3.413,8.533-8.533v-17.067 C58.733,318.147,55.32,314.733,50.2,314.733z"/> <path d="M50.2,212.333c-5.12,0-8.533,3.413-8.533,8.533v17.067c0,5.12,3.413,8.533,8.533,8.533s8.533-3.413,8.533-8.533v-17.067 C58.733,215.747,55.32,212.333,50.2,212.333z"/> <path d="M50.2,365.933c-5.12,0-8.533,3.413-8.533,8.533v17.067c0,5.12,3.413,8.533,8.533,8.533s8.533-3.413,8.533-8.533v-17.067 C58.733,369.347,55.32,365.933,50.2,365.933z"/> <path d="M50.2,161.133c-5.12,0-8.533,3.413-8.533,8.533v17.067c0,5.12,3.413,8.533,8.533,8.533s8.533-3.413,8.533-8.533v-17.067 C58.733,164.547,55.32,161.133,50.2,161.133z"/> <path d="M101.4,212.333c-5.12,0-8.533,3.413-8.533,8.533v17.067c0,5.12,3.413,8.533,8.533,8.533s8.533-3.413,8.533-8.533v-17.067 C109.933,215.747,106.52,212.333,101.4,212.333z"/> <path d="M101.4,161.133c-5.12,0-8.533,3.413-8.533,8.533v17.067c0,5.12,3.413,8.533,8.533,8.533s8.533-3.413,8.533-8.533v-17.067 C109.933,164.547,106.52,161.133,101.4,161.133z"/> <path d="M101.4,263.533c-5.12,0-8.533,3.413-8.533,8.533v17.067c0,5.12,3.413,8.533,8.533,8.533s8.533-3.413,8.533-8.533v-17.067 C109.933,266.947,106.52,263.533,101.4,263.533z"/> <path d="M101.4,365.933c-5.12,0-8.533,3.413-8.533,8.533v17.067c0,5.12,3.413,8.533,8.533,8.533s8.533-3.413,8.533-8.533v-17.067 C109.933,369.347,106.52,365.933,101.4,365.933z"/> <path d="M101.4,314.733c-5.12,0-8.533,3.413-8.533,8.533v17.067c0,5.12,3.413,8.533,8.533,8.533s8.533-3.413,8.533-8.533v-17.067 C109.933,318.147,106.52,314.733,101.4,314.733z"/> <path d="M101.4,417.133c-5.12,0-8.533,3.413-8.533,8.533v17.067c0,5.12,3.413,8.533,8.533,8.533s8.533-3.413,8.533-8.533v-17.067 C109.933,420.547,106.52,417.133,101.4,417.133z"/> </g> </g> </g> </g>
</svg>